<?xml version="1.0" encoding="UTF-8" standalone="no"?>
<svg width="223px" height="40px" viewBox="0 0 223 40" version="1.1" xmlns="http://www.w3.org/2000/svg" xmlns:xlink="http://www.w3.org/1999/xlink" xmlns:sketch="http://www.bohemiancoding.com/sketch/ns">
    <!-- Generator: Sketch 3.3 (11970) - http://www.bohemiancoding.com/sketch -->
    <title>logo_qb_w</title>
    <desc>Created with Sketch.</desc>
    <defs></defs>
    <g id="Docs" stroke="none" stroke-width="1" fill="none" fill-rule="evenodd" sketch:type="MSPage">
        <g id="Doc_2_hor" sketch:type="MSArtboardGroup" transform="translate(-154.000000, -40.000000)" fill="#FFFFFF">
            <g id="logo_qb_w" sketch:type="MSLayerGroup" transform="translate(154.000000, 40.000000)">
                <g id="logo_qb" sketch:type="MSShapeGroup">
                    <rect id="Rectangle-2" x="0" y="0" width="10" height="10" rx="2"></rect>
                    <rect id="Rectangle-2" x="0" y="0" width="10" height="10" rx="2"></rect>
                    <rect id="Rectangle-2" x="0" y="13" width="10" height="10" rx="2"></rect>
                    <rect id="Rectangle-2" x="13" y="0" width="10" height="10" rx="2"></rect>
                    <rect id="Rectangle-3" x="26" y="0" width="10" height="10" rx="2"></rect>
                    <rect id="Rectangle-3" x="26" y="13" width="10" height="10" rx="2"></rect>
                    <rect id="Rectangle-6" x="0" y="26" width="10" height="10" rx="2"></rect>
                    <rect id="Rectangle-5" x="13" y="26" width="10" height="10" rx="2"></rect>
                    <rect id="Rectangle-4" x="26" y="26" width="14" height="14" rx="2"></rect>
                </g>
                <g id="quickblox" transform="translate(57.000000, 12.000000)" sketch:type="MSShapeGroup">
                    <g id="Blox" transform="translate(94.655906, 0.000000)">
                        <path d="M0.136730024,15.2437405 L6.91711969,15.2437405 C10.1817518,15.2437405 12.337246,13.8125975 12.337246,11.1425547 C12.337246,9.07060148 11.1443997,8.06666538 9.42837513,7.46857578 C10.5165858,6.89184653 11.521088,5.93063111 11.521088,4.13636233 C11.521088,3.08970555 11.1862539,2.27801253 10.5375129,1.61584191 C9.7004278,0.761428201 8.3820187,0.291500663 6.70784841,0.291500663 L0.136730024,0.291500663 L0.136730024,15.2437405 Z M2.66891259,6.59280174 L2.66891259,2.61977801 L6.37301435,2.61977801 C8.02625751,2.61977801 8.94705117,3.34602966 8.94705117,4.5208485 C8.94705117,5.93063111 7.83791335,6.59280174 6.18467019,6.59280174 L2.66891259,6.59280174 Z M2.66891259,12.9154632 L2.66891259,8.81427737 L6.74970266,8.81427737 C8.77963414,8.81427737 9.76320918,9.56188936 9.76320918,10.8221496 C9.76320918,12.2105718 8.69592562,12.9154632 6.93804682,12.9154632 L2.66891259,12.9154632 Z M20.0022825,15.2437405 L30.2775026,15.2437405 L30.2775026,12.8513821 L22.5763193,12.8513821 L22.5763193,0.291500663 L20.0022825,0.291500663 L20.0022825,15.2437405 Z M43.8649165,15.5000646 C48.3642491,15.5000646 51.5451727,11.9756081 51.5451727,7.76762058 C51.5451727,3.5169124 48.4061034,0.0351765515 43.9067707,0.0351765515 C39.4074381,0.0351765515 36.2265145,3.55963308 36.2265145,7.76762058 C36.2265145,12.0183288 39.3655838,15.5000646 43.8649165,15.5000646 L43.8649165,15.5000646 Z M43.9067707,13.0863459 C40.9978999,13.0863459 38.9261141,10.6726272 38.9261141,7.76762058 C38.9261141,4.8198933 40.9560456,2.44889527 43.8649165,2.44889527 C46.7737874,2.44889527 48.8455731,4.86261398 48.8455731,7.76762058 C48.8455731,10.7153479 46.8156416,13.0863459 43.9067707,13.0863459 L43.9067707,13.0863459 Z M57.2639862,15.2437405 L60.2147113,15.2437405 L64.0862301,9.5832497 L67.9368218,15.2437405 L70.9712554,15.2437405 L65.6557648,7.59673784 L70.7619841,0.291500663 L67.811259,0.291500663 L64.1490115,5.65294666 L60.5076911,0.291500663 L57.4732575,0.291500663 L62.600404,7.63945852 L57.2639862,15.2437405 Z" id="blox"></path>
                    </g>
                    <g id="quick">
                        <path d="M14.2992894,15.6923077 L15.4293543,14.4320475 L13.4831313,12.7873011 C14.6131963,11.4202392 15.2410101,9.64733073 15.2410101,7.76762058 C15.2410101,3.60235377 12.2484307,0.0351765515 7.79095236,0.0351765515 C3.33347396,0.0351765515 0.299040314,3.64507445 0.299040314,7.76762058 C0.299040314,11.9328874 3.2916197,15.5000646 7.7490981,15.5000646 C9.56975829,15.5000646 11.1392929,14.901975 12.3739935,13.8980389 L14.2992894,15.6923077 Z M7.79095236,13.9407596 C4.44261178,13.9407596 2.01506486,11.1639151 2.01506486,7.76762058 C2.01506486,4.32860542 4.40075752,1.59448156 7.7490981,1.59448156 C11.0974387,1.59448156 13.5249856,4.3713261 13.5249856,7.76762058 C13.5249856,9.28420491 13.0436616,10.6299065 12.2484307,11.6765633 L9.54883116,9.17740319 L8.43969334,10.4376634 L11.1602201,12.8086614 C10.2603535,13.5135527 9.08843433,13.9407596 7.79095236,13.9407596 Z M29.3516022,15.4787043 C33.0138497,15.4787043 35.4623238,13.2145079 35.4623238,8.85699805 L35.4623238,0.291500663 L33.8090806,0.291500663 L33.8090806,8.98516011 C33.8090806,12.2532925 32.0930561,13.9193993 29.3934565,13.9193993 C26.5892212,13.9193993 24.915051,12.1037701 24.915051,8.8783584 L24.915051,0.291500663 L23.2618078,0.291500663 L23.2618078,8.98516011 C23.2618078,13.2145079 25.731209,15.4787043 29.3516022,15.4787043 Z M44.2783523,15.2437405 L45.9315955,15.2437405 L45.9315955,0.291500663 L44.2783523,0.291500663 L44.2783523,15.2437405 Z M61.6745036,15.5000646 C64.3322489,15.5000646 66.0064192,14.5388492 67.5340996,12.9581838 L66.4458889,11.783365 C65.0437713,13.1504269 63.7253622,13.9407596 61.7163578,13.9407596 C58.49358,13.9407596 56.045106,11.2279961 56.045106,7.76762058 C56.045106,4.28588473 58.4726529,1.59448156 61.7163578,1.59448156 C63.7044351,1.59448156 65.0856256,2.44889527 66.3203261,3.64507445 L67.4085368,2.44889527 C65.9436378,1.03911265 64.3950303,0.0351765515 61.737285,0.0351765515 C57.4262965,0.0351765515 54.3290814,3.53827274 54.3290814,7.76762058 C54.3290814,12.1037701 57.4472236,15.5000646 61.6745036,15.5000646 Z M75.1782089,15.2437405 L76.8314521,15.2437405 L76.8314521,11.2279961 L79.9495943,8.00258435 L85.5789919,15.2437405 L87.6507776,15.2437405 L81.1005863,6.8277655 L87.3787249,0.291500663 L85.2441578,0.291500663 L76.8314521,9.22012388 L76.8314521,0.291500663 L75.1782089,0.291500663 L75.1782089,15.2437405 Z" id="Path"></path>
                    </g>
                </g>
            </g>
        </g>
    </g>
</svg>